<?xml version="1.0" encoding="UTF-8" standalone="no"?>
<!-- Created with Inkscape (http://www.inkscape.org/) -->

<svg
   width="133.02347mm"
   height="47.931633mm"
   viewBox="0 0 133.02347 47.931633"
   version="1.1"
   id="svg1"
   xml:space="preserve"
   xmlns:inkscape="http://www.inkscape.org/namespaces/inkscape"
   xmlns:sodipodi="http://sodipodi.sourceforge.net/DTD/sodipodi-0.dtd"
   xmlns="http://www.w3.org/2000/svg"
   xmlns:svg="http://www.w3.org/2000/svg"><sodipodi:namedview
     id="namedview1"
     pagecolor="#ffffff"
     bordercolor="#000000"
     borderopacity="0.25"
     inkscape:showpageshadow="2"
     inkscape:pageopacity="0.0"
     inkscape:pagecheckerboard="0"
     inkscape:deskcolor="#d1d1d1"
     inkscape:document-units="mm"><inkscape:page
       x="0"
       y="-6.4855564e-13"
       width="133.02347"
       height="47.931629"
       id="page2"
       margin="0"
       bleed="0" /></sodipodi:namedview><defs
     id="defs1" /><g
     inkscape:label="Capa 1"
     inkscape:groupmode="layer"
     id="layer1"
     transform="translate(-42.211788,-111.2853)"><path
       style="fill:#ffffff"
       d="m 91.801037,159.08266 c -15.247683,-0.13364 -36.630725,-0.75237 -45.376042,-1.31298 -2.21017,-0.14169 -2.687611,-0.23227 -1.984375,-0.37652 1.215828,-0.24937 10.309465,-0.77248 13.428814,-0.77248 1.345402,0 2.446186,-0.092 2.446186,-0.20442 0,-0.11243 -0.428008,-0.43491 -0.95113,-0.71663 -0.523122,-0.28172 -1.470232,-1.08958 -2.10469,-1.79525 -4.115293,-4.5772 -3.968849,-11.47569 0.334716,-15.76737 1.851935,-1.84683 3.899495,-2.8931 6.42758,-3.28441 4.807375,-0.74412 9.48358,1.60969 11.611367,5.84468 1.742641,3.46843 1.75061,6.94098 0.02412,10.50745 -0.667084,1.37801 -2.787503,3.79831 -3.804567,4.34262 -0.379211,0.20295 -0.689598,0.43818 -0.689748,0.52273 -1.51e-4,0.0846 2.470396,0.0589 5.490104,-0.057 7.501574,-0.28798 52.921148,-0.35593 59.465368,-0.089 l 5.29167,0.21586 -1.05833,-0.77256 c -1.57412,-1.14907 -2.75799,-2.61562 -3.67701,-4.555 -0.77014,-1.62519 -0.82091,-1.92049 -0.82091,-4.77503 0,-2.87598 0.0465,-3.14092 0.84894,-4.83495 0.95815,-2.02278 3.07442,-4.31869 4.78533,-5.19153 2.54446,-1.29809 6.02709,-1.69132 8.69287,-0.98153 5.51105,1.46737 9.02161,6.86818 8.0703,12.41574 -0.58861,3.43257 -2.0195,5.84185 -4.59836,7.74257 l -1.5155,1.11698 2.97071,0.15228 c 1.63389,0.0837 5.88774,0.28892 9.453,0.45592 10.65319,0.49901 9.7401,0.71719 -5.95312,1.42243 -8.76593,0.39394 -46.9187,0.98573 -55.82708,0.86594 -2.61937,-0.0352 -7.560469,-0.0886 -10.980208,-0.11853 z m -23.214134,-4.48258 c 1.704351,-0.54818 3.940281,-2.63001 4.880034,-4.54369 0.633292,-1.28961 0.739308,-1.828 0.739308,-3.75446 0,-1.91474 -0.107515,-2.46788 -0.723463,-3.72208 -0.884816,-1.80166 -2.285144,-3.24758 -4.039037,-4.17055 -1.141256,-0.60058 -1.649905,-0.69687 -3.704167,-0.70125 -2.036603,-0.004 -2.600305,0.0976 -3.894756,0.70429 -5.633493,2.6404 -6.823365,10.13667 -2.283082,14.38357 2.518096,2.35538 5.474169,2.94632 9.025163,1.80417 z m 82.013627,-0.29104 c 1.79097,-0.78773 3.66683,-2.66791 4.48865,-4.49901 0.42554,-0.94816 0.5705,-1.81576 0.58692,-3.51281 0.0197,-2.03709 -0.0619,-2.42378 -0.8492,-4.02379 -1.63829,-3.32945 -4.30761,-4.83241 -8.25712,-4.64918 -2.72237,0.12631 -4.43933,0.93475 -6.24099,2.93864 -1.2566,1.39763 -2.22567,3.89646 -2.22567,5.73904 0,1.96213 0.97032,4.35897 2.39629,5.91921 2.71505,2.9707 6.37431,3.72707 10.10112,2.0879 z m -99.822979,-5.37281 c -2.136305,-0.3212 -4.239892,-1.18324 -5.48213,-2.24655 -1.7881,-1.53055 -3.032407,-4.86019 -3.080485,-8.24307 -0.0214,-1.50601 0.04633,-1.70953 0.842818,-2.53253 1.018055,-1.05194 1.378914,-2.70439 1.381334,-6.32541 0.0017,-2.54759 0.135472,-3.13049 0.718416,-3.13049 0.865483,0 5.3226,-1.68553 12.247699,-4.63166 18.472382,-7.85865 25.255735,-9.71613 37.999739,-10.40544 4.462594,-0.24138 8.828038,-0.16179 13.461718,0.24543 5.62229,0.49411 8.52873,1.12308 11.72828,2.53807 1.11354,0.49246 1.35758,0.70327 1.13067,0.97668 -0.33532,0.40404 0.0241,0.777 1.69313,1.75676 1.87463,1.10047 6.54867,4.24557 8.94155,6.01665 l 2.32696,1.72229 2.56783,-0.14248 c 2.92185,-0.16212 8.68426,0.15632 13.54804,0.74868 8.4245,1.02603 17.39783,3.6582 21.57022,6.32725 2.48319,1.58848 3.00173,3.86214 2.1136,9.26756 -0.21519,1.30969 -0.39333,3.04511 -0.39587,3.85648 -0.004,1.23859 0.10251,1.57588 0.66318,2.1026 0.5628,0.52872 0.60465,0.66271 0.26615,0.85215 -0.68545,0.38359 -6.36741,0.98281 -11.07374,1.16783 l -4.49417,0.17668 0.17152,-1.69662 c 0.84513,-8.35972 -6.2296,-15.06068 -14.50943,-13.74287 -2.77988,0.44245 -4.90638,1.55081 -6.99073,3.64368 -2.76182,2.77311 -3.94289,5.95276 -3.66318,9.86198 l 0.13221,1.84788 H 106.38394 78.174995 l -0.02721,-2.71198 c -0.0207,-2.06268 -0.163502,-3.08694 -0.596471,-4.27812 -1.205928,-3.31772 -3.56598,-5.94095 -6.652362,-7.39417 -1.441537,-0.67875 -2.122145,-0.82744 -4.206599,-0.91895 -4.253588,-0.18675 -6.866657,0.72531 -9.631027,3.36157 -2.850013,2.71793 -3.949927,5.43842 -3.865342,9.5604 0.05883,2.86698 0.169252,2.75879 -2.418433,2.36972 z m 120.318419,-3.36191 c 0.23215,-0.5457 0.47915,-1.55573 0.5489,-2.2445 0.10228,-1.01012 0.0398,-1.28572 -0.32317,-1.425 -0.66236,-0.25417 -2.38001,0.33891 -3.35322,1.15781 -0.9806,0.82512 -2.39838,2.94485 -2.19248,3.278 0.0768,0.12424 1.21021,0.22588 2.51873,0.22588 h 2.37914 z m -44.50223,-0.10974 c -1.30968,-0.12492 -7.85812,-0.58479 -14.55208,-1.02192 -6.69396,-0.43714 -14.552082,-0.9845 -17.462498,-1.21637 -6.021839,-0.47975 -9.552678,-0.3887 -11.1125,0.28656 -0.923345,0.39972 -0.99084,0.48372 -0.529167,0.65861 0.74387,0.28178 36.318315,1.53043 43.391665,1.52303 l 2.64583,-0.003 z m 44.71459,-11.30124 c 2.39328,-0.51177 -0.95725,-2.65945 -6.0526,-3.8797 -2.99588,-0.71747 -7.57345,-1.17311 -7.57345,-0.75385 0,0.13175 0.50602,0.54878 1.12448,0.92675 0.61847,0.37797 2.08508,1.30235 3.25914,2.05417 1.18549,0.75914 2.65608,1.46923 3.3073,1.59697 1.36858,0.26846 4.78994,0.30054 5.93513,0.0557 z M 52.912755,130.86435 c 2.973949,-1.03911 6.157921,-2.55799 6.285699,-2.99852 0.14501,-0.49994 -1.999272,-0.69216 -8.034538,-0.72024 -6.649889,-0.0309 -6.572542,-0.0589 -6.400901,2.31402 0.150201,2.0765 0.465814,2.29098 3.366196,2.28757 1.879961,-0.002 2.692323,-0.15214 4.783544,-0.88283 z m 69.120005,-6.89633 c -0.18553,-0.97054 0.91017,-1.57893 2.55838,-1.42055 0.94194,0.0905 1.6639,0.38878 2.64215,1.09158 1.11973,0.80445 1.56838,0.96704 2.66836,0.96704 0.72726,0 1.31753,-0.0893 1.31171,-0.19843 -0.0156,-0.29216 -4.13342,-3.09862 -7.70397,-5.25057 -3.6165,-2.17964 -6.68587,-3.46484 -9.48336,-3.97086 -2.33796,-0.42291 -12.87986,-1.0718 -13.14267,-0.80899 -0.18958,0.18959 1.14312,9.42917 1.39693,9.68491 0.21401,0.21563 6.20976,0.43463 13.49499,0.49291 l 6.37946,0.051 z m -24.702098,-1.41245 c -0.01464,-0.83674 -0.163471,-2.9501 -0.330729,-4.69635 l -0.304105,-3.175 -2.116666,0.0808 c -5.213044,0.19895 -10.841775,1.16261 -17.512672,2.99822 l -2.992537,0.82345 v 2.21596 c 0,1.87384 0.06673,2.21596 0.432192,2.21596 0.237705,0 4.315596,0.17905 9.061979,0.39789 4.746383,0.21884 9.582288,0.433 10.746454,0.47592 1.164167,0.0429 2.325026,0.102 2.579688,0.13128 0.396104,0.0455 0.459173,-0.16662 0.436396,-1.46811 z m 3.730788,1.0067 c 0,-0.58726 -0.98229,-7.51248 -1.193611,-8.41503 -0.1194,-0.50996 -0.312383,-0.59531 -1.345991,-0.59531 -1.176348,0 -1.202837,0.0183 -1.056297,0.7276 0.121083,0.58613 0.950069,8.14033 0.950069,8.65758 0,0.0769 0.595313,0.13982 1.322917,0.13982 1.134093,0 1.322913,-0.0735 1.322913,-0.51466 z m -28.04583,-2.66034 c 0,-1.09257 -0.111596,-1.85209 -0.272128,-1.85209 -0.508522,0 -3.297429,1.52708 -3.794857,2.07789 -0.982798,1.08826 -0.286612,1.52317 2.545631,1.59025 l 1.521354,0.036 z"
       id="path1" /></g></svg>
