<?xml version="1.0" encoding="UTF-8" standalone="no"?>
<!-- Created with Inkscape (http://www.inkscape.org/) -->

<svg
   width="21.968838mm"
   height="7.9162965mm"
   viewBox="0 0 21.968838 7.9162965"
   version="1.1"
   id="svg1"
   xml:space="preserve"
   xmlns:inkscape="http://www.inkscape.org/namespaces/inkscape"
   xmlns:sodipodi="http://sodipodi.sourceforge.net/DTD/sodipodi-0.dtd"
   xmlns="http://www.w3.org/2000/svg"
   xmlns:svg="http://www.w3.org/2000/svg"><sodipodi:namedview
     id="namedview1"
     pagecolor="#ffffff"
     bordercolor="#000000"
     borderopacity="0.25"
     inkscape:showpageshadow="2"
     inkscape:pageopacity="0.0"
     inkscape:pagecheckerboard="0"
     inkscape:deskcolor="#d1d1d1"
     inkscape:document-units="mm"><inkscape:page
       x="0"
       y="0"
       width="21.968838"
       height="7.9162965"
       id="page2"
       margin="0"
       bleed="0" /></sodipodi:namedview><defs
     id="defs1" /><g
     inkscape:label="Capa 1"
     inkscape:groupmode="layer"
     id="layer1"
     transform="translate(-97.739122,-140.40528)"><path
       style="fill:#60a5fa;fill-opacity:1;stroke-width:0.16515"
       d="m 105.92878,148.29906 c -2.51816,-0.0221 -6.049565,-0.12425 -7.493854,-0.21683 -0.36501,-0.0234 -0.443859,-0.0384 -0.32772,-0.0622 0.200794,-0.0412 1.702609,-0.12757 2.217774,-0.12757 0.22219,0 0.40398,-0.0152 0.40398,-0.0338 0,-0.0186 -0.0707,-0.0718 -0.15708,-0.11835 -0.0864,-0.0465 -0.24281,-0.17995 -0.34759,-0.29649 -0.679637,-0.75592 -0.655451,-1.89521 0.0553,-2.60398 0.30585,-0.305 0.644,-0.4778 1.06152,-0.54242 0.79394,-0.12289 1.56621,0.26584 1.91761,0.96525 0.2878,0.57281 0.28912,1.1463 0.004,1.7353 -0.11017,0.22758 -0.46036,0.62729 -0.62833,0.71719 -0.0626,0.0335 -0.11388,0.0724 -0.11391,0.0863 -2e-5,0.014 0.40799,0.01 0.90669,-0.009 1.23889,-0.0476 8.73993,-0.0588 9.82071,-0.0147 l 0.87392,0.0357 -0.17478,-0.12758 c -0.25997,-0.18977 -0.45549,-0.43197 -0.60726,-0.75226 -0.12719,-0.2684 -0.13558,-0.31717 -0.13558,-0.7886 0,-0.47497 0.008,-0.51872 0.14021,-0.79849 0.15823,-0.33406 0.50774,-0.71323 0.79029,-0.85738 0.42022,-0.21438 0.99538,-0.27932 1.43563,-0.1621 0.91015,0.24233 1.48992,1.13428 1.33281,2.05046 -0.0972,0.56689 -0.33352,0.96478 -0.75942,1.27868 l -0.25028,0.18447 0.49061,0.0251 c 0.26984,0.0138 0.97236,0.0477 1.56116,0.0753 1.75938,0.0824 1.60858,0.11844 -0.98315,0.23491 -1.4477,0.0651 -7.74863,0.16279 -9.21985,0.14301 -0.43259,-0.006 -1.24861,-0.0146 -1.81338,-0.0196 z m -3.83381,-0.74029 c 0.28147,-0.0905 0.65073,-0.43435 0.80593,-0.75039 0.10459,-0.21298 0.1221,-0.3019 0.1221,-0.62005 0,-0.31622 -0.0178,-0.40757 -0.11948,-0.61471 -0.14613,-0.29754 -0.37739,-0.53633 -0.66705,-0.68876 -0.18848,-0.0992 -0.27248,-0.11509 -0.61174,-0.11581 -0.33635,-6.6e-4 -0.42944,0.0161 -0.64322,0.11631 -0.93037,0.43606 -1.126878,1.67407 -0.37705,2.37545 0.41586,0.38899 0.90406,0.48658 1.49051,0.29796 z m 13.54455,-0.0481 c 0.29578,-0.13009 0.60557,-0.4406 0.7413,-0.74301 0.0703,-0.15659 0.0942,-0.29987 0.0969,-0.58014 0.003,-0.33643 -0.0102,-0.40029 -0.14025,-0.66453 -0.27056,-0.54986 -0.7114,-0.79807 -1.36366,-0.76781 -0.4496,0.0209 -0.73316,0.15437 -1.0307,0.48531 -0.20753,0.23082 -0.36757,0.6435 -0.36757,0.94781 0,0.32404 0.16025,0.71988 0.39575,0.97755 0.44839,0.49061 1.05271,0.61553 1.6682,0.34482 z m -16.485769,-0.88732 c -0.352811,-0.053 -0.700219,-0.19541 -0.905374,-0.37102 -0.295305,-0.25277 -0.500802,-0.80266 -0.508742,-1.36134 -0.0035,-0.24872 0.0077,-0.28233 0.139191,-0.41825 0.168132,-0.17373 0.227728,-0.44663 0.228127,-1.04464 2.81e-4,-0.42073 0.02237,-0.517 0.118647,-0.517 0.142934,0 0.879027,-0.27836 2.02271,-0.76492 3.05071,-1.29785 4.17098,-1.60462 6.27565,-1.71846 0.737,-0.0399 1.45796,-0.0267 2.22321,0.0405 0.92852,0.0816 1.40852,0.18547 1.93692,0.41916 0.1839,0.0813 0.22421,0.11614 0.18673,0.1613 -0.0554,0.0667 0.004,0.12832 0.27962,0.29013 0.3096,0.18174 1.08152,0.70115 1.4767,0.99365 l 0.3843,0.28443 0.42408,-0.0235 c 0.48254,-0.0268 1.4342,0.0258 2.23745,0.12365 1.39131,0.16944 2.87326,0.60415 3.56233,1.04494 0.4101,0.26234 0.49573,0.63783 0.34906,1.53054 -0.0355,0.21629 -0.065,0.5029 -0.0654,0.6369 -6.6e-4,0.20455 0.0169,0.26025 0.10952,0.34724 0.093,0.0873 0.0999,0.10945 0.044,0.14073 -0.1132,0.0634 -1.05158,0.16231 -1.82883,0.19287 l -0.74221,0.0292 0.0283,-0.2802 c 0.13958,-1.3806 -1.02881,-2.48727 -2.39623,-2.26963 -0.4591,0.0731 -0.81029,0.25611 -1.15452,0.60175 -0.45611,0.45798 -0.65117,0.9831 -0.60497,1.62871 l 0.0218,0.30518 h -4.6587 -4.65871 l -0.004,-0.44789 c -0.003,-0.34065 -0.027,-0.50981 -0.0985,-0.70653 -0.19916,-0.54792 -0.58892,-0.98115 -1.09864,-1.22115 -0.23807,-0.11209 -0.35047,-0.13665 -0.69472,-0.15176 -0.70248,-0.0308 -1.13403,0.11978 -1.59056,0.55516 -0.470684,0.44887 -0.652334,0.89816 -0.638365,1.5789 0.0097,0.47348 0.02795,0.45562 -0.399404,0.39136 z m 19.870589,-0.55522 c 0.0383,-0.0901 0.0791,-0.25693 0.0907,-0.37068 0.0169,-0.16682 0.007,-0.21233 -0.0534,-0.23534 -0.10939,-0.042 -0.39306,0.056 -0.55379,0.19122 -0.16194,0.13626 -0.39609,0.48634 -0.36208,0.54136 0.0127,0.0205 0.19986,0.0373 0.41596,0.0373 h 0.39292 z m -7.34954,-0.0181 c -0.2163,-0.0206 -1.29777,-0.0966 -2.40328,-0.16877 -1.10551,-0.0722 -2.40328,-0.16259 -2.88393,-0.20089 -0.99451,-0.0792 -1.57763,-0.0642 -1.83523,0.0473 -0.15249,0.066 -0.16364,0.0799 -0.0874,0.10877 0.12285,0.0465 5.99797,0.25275 7.16613,0.25153 l 0.43696,-5e-4 z m 7.38461,-1.8664 c 0.39525,-0.0845 -0.15809,-0.43921 -0.99959,-0.64073 -0.49477,-0.11849 -1.25075,-0.19374 -1.25075,-0.1245 0,0.0218 0.0836,0.0906 0.18571,0.15305 0.10214,0.0624 0.34435,0.21508 0.53824,0.33925 0.19579,0.12537 0.43865,0.24264 0.5462,0.26374 0.22602,0.0443 0.79106,0.0496 0.98019,0.009 z M 99.50638,143.6388 c 0.491147,-0.17161 1.01698,-0.42245 1.03808,-0.49521 0.0239,-0.0826 -0.33018,-0.11431 -1.326901,-0.11894 -1.09823,-0.005 -1.085456,-0.01 -1.057109,0.38216 0.02481,0.34293 0.07693,0.37835 0.555927,0.37779 0.310476,-3.3e-4 0.444637,-0.0251 0.790003,-0.1458 z m 11.41517,-1.13893 c -0.0306,-0.16028 0.15031,-0.26076 0.42252,-0.2346 0.15556,0.0149 0.27479,0.0642 0.43635,0.18027 0.18492,0.13286 0.25901,0.15971 0.44068,0.15971 0.1201,0 0.21759,-0.0147 0.21663,-0.0328 -0.003,-0.0482 -0.68264,-0.51174 -1.27232,-0.86713 -0.59726,-0.35997 -1.10417,-0.57222 -1.56617,-0.65579 -0.38612,-0.0699 -2.12711,-0.17701 -2.17051,-0.13361 -0.0313,0.0313 0.18878,1.55723 0.2307,1.59947 0.0353,0.0356 1.02554,0.0718 2.2287,0.0814 l 1.05356,0.008 z M 106.842,142.2666 c -0.002,-0.13818 -0.027,-0.4872 -0.0546,-0.7756 l -0.0502,-0.52435 -0.34956,0.0134 c -0.86094,0.0328 -1.79052,0.192 -2.89222,0.49515 l -0.49422,0.13599 v 0.36597 c 0,0.30946 0.011,0.36597 0.0714,0.36597 0.0393,0 0.71272,0.0296 1.49658,0.0657 0.78387,0.0361 1.58252,0.0715 1.77478,0.0786 0.19226,0.007 0.38398,0.0168 0.42604,0.0217 0.0654,0.008 0.0758,-0.0275 0.0721,-0.24246 z m 0.61614,0.16626 c 0,-0.097 -0.16223,-1.24069 -0.19713,-1.38974 -0.0197,-0.0842 -0.0516,-0.0983 -0.22229,-0.0983 -0.19427,0 -0.19865,0.003 -0.17445,0.12017 0.02,0.0968 0.15691,1.34437 0.15691,1.4298 0,0.0127 0.0983,0.0231 0.21848,0.0231 0.18729,0 0.21848,-0.0121 0.21848,-0.085 z m -4.63177,-0.43935 c 0,-0.18044 -0.0184,-0.30588 -0.0449,-0.30588 -0.084,0 -0.54457,0.2522 -0.62672,0.34317 -0.16231,0.17972 -0.0473,0.25155 0.42041,0.26263 l 0.25125,0.006 z"
       id="path1"
       inkscape:export-filename="auto2.svg"
       inkscape:export-xdpi="96"
       inkscape:export-ydpi="96" /></g></svg>
